<?xml version="1.0" encoding="UTF-8"?>
<!DOCTYPE svg PUBLIC "-//W3C//DTD SVG 1.1//EN" "http://www.w3.org/Graphics/SVG/1.1/DTD/svg11.dtd">
<svg xmlns="http://www.w3.org/2000/svg" version="1.1" width="512px" height="512px" style="shape-rendering:geometricPrecision; text-rendering:geometricPrecision; image-rendering:optimizeQuality; fill-rule:evenodd; clip-rule:evenodd" xmlns:xlink="http://www.w3.org/1999/xlink">
<g><path style="opacity:0.993" fill="#2196f3" d="M 249.5,-0.5 C 253.5,-0.5 257.5,-0.5 261.5,-0.5C 264.725,1.21311 267.559,3.54644 270,6.5C 279.92,23.3457 290.587,39.6791 302,55.5C 329.667,91.5 357.333,127.5 385,163.5C 401.929,186.339 416.596,210.672 429,236.5C 457.376,299.927 454.043,361.594 419,421.5C 384.757,472.886 336.924,502.886 275.5,511.5C 262.167,511.5 248.833,511.5 235.5,511.5C 161.869,500.784 109.369,461.784 78,394.5C 56.6054,341.281 57.9388,288.615 82,236.5C 94.404,210.672 109.071,186.339 126,163.5C 153.667,127.5 181.333,91.5 209,55.5C 220.413,39.6791 231.08,23.3457 241,6.5C 243.441,3.54644 246.275,1.21311 249.5,-0.5 Z"/></g>
<g><path style="opacity:1" fill="#f8f9f9" d="M 197.5,191.5 C 230.837,189.528 250.17,204.861 255.5,237.5C 254.188,262.637 241.522,278.804 217.5,286C 187.897,289.451 168.73,276.951 160,248.5C 157.514,219.437 170.014,200.437 197.5,191.5 Z"/></g>
<g><path style="opacity:1" fill="#2897f3" d="M 201.5,223.5 C 216.353,222.191 223.519,228.858 223,243.5C 217.429,255.135 208.929,257.968 197.5,252C 188.51,241.077 189.844,231.577 201.5,223.5 Z"/></g>
<g><path style="opacity:1" fill="#f9f9f9" d="M 330.5,223.5 C 342.304,221.991 349.304,226.991 351.5,238.5C 351.239,242.45 350.072,246.117 348,249.5C 293.833,303.667 239.667,357.833 185.5,412C 173.254,418.477 164.754,415.31 160,402.5C 159.035,398.218 159.702,394.218 162,390.5C 217.756,334.243 273.923,278.577 330.5,223.5 Z"/></g>
<g><path style="opacity:1" fill="#f8f9f9" d="M 297.5,351.5 C 320.582,350.453 337.415,360.12 348,380.5C 355.225,402.483 350.391,421.316 333.5,437C 309.564,452.403 287.397,450.236 267,430.5C 249.894,405.241 252.394,382.074 274.5,361C 281.41,355.759 289.076,352.592 297.5,351.5 Z"/></g>
<g><path style="opacity:1" fill="#2797f3" d="M 298.5,383.5 C 314.677,383.167 321.177,390.833 318,406.5C 310.038,417.204 301.038,418.204 291,409.5C 284.912,398.27 287.412,389.603 298.5,383.5 Z"/></g>
</svg>
